<svg width="568" height="465" viewBox="0 0 568 465" fill="none" xmlns="http://www.w3.org/2000/svg">
<rect width="568" height="465" fill="#E5E5E5"/>
<rect width="568" height="465" fill="white"/>
<rect x="157.399" y="418.834" width="9.65529" height="319.506" transform="rotate(180 157.399 418.834)" fill="black"/>
<rect x="157.399" y="418.834" width="9.65529" height="319.506" transform="rotate(180 157.399 418.834)" fill="url(#paint0_linear)"/>
<rect x="157.399" y="418.834" width="9.65529" height="319.506" transform="rotate(180 157.399 418.834)" stroke="black"/>
<rect x="474.5" y="88.558" width="9.7697" height="316.101" transform="rotate(90 474.5 88.558)" fill="black"/>
<rect x="474.5" y="88.558" width="9.7697" height="316.101" transform="rotate(90 474.5 88.558)" fill="url(#paint1_linear)"/>
<rect x="474.5" y="88.558" width="9.7697" height="316.101" transform="rotate(90 474.5 88.558)" stroke="black"/>
<path d="M22.386 19.5H14.14V20.69H17.556V30H18.97V20.69H22.386V19.5ZM26.7033 22.132C25.8073 22.132 25.1353 22.44 24.4353 23.182V22.3H23.0913V30H24.4353V24.75C24.6873 23.91 25.4993 23.364 26.2693 23.364C26.6613 23.364 26.9693 23.42 27.2493 23.532L27.5013 22.216C27.3193 22.146 27.1373 22.132 26.7033 22.132ZM33.8293 22.3V27.298C33.6753 28.25 32.6953 28.964 31.7713 28.964C30.5813 28.964 30.1053 28.208 30.1053 27.018V22.3H28.7613V27.466C28.7613 29.286 29.7133 30.21 31.1273 30.21C32.3313 30.21 33.0733 29.79 33.8293 28.866V30H35.1732V22.3H33.8293ZM42.5324 18.8V23.364C41.9864 22.636 41.0904 22.146 40.1804 22.146C38.0524 22.146 36.6384 23.784 36.6384 26.22C36.6384 28.614 38.0524 30.21 40.1804 30.21C41.1464 30.21 42.0424 29.678 42.5324 28.838V30H43.8764V18.8H42.5324ZM40.1804 29.09C38.8644 29.09 37.9824 27.928 37.9824 26.206C37.9824 24.456 38.8644 23.266 40.1384 23.266C41.6084 23.266 42.5324 24.05 42.5324 26.164C42.5324 28.166 41.5944 29.09 40.1804 29.09ZM51.0594 22.3L48.8614 28.502L46.7194 22.3H45.3474L48.2174 29.986L47.8674 30.938C47.5874 31.708 47.2234 31.974 46.8314 31.974C46.5794 31.974 46.2854 31.946 46.1454 31.904V33.066C46.2714 33.136 46.5094 33.192 46.7474 33.192C47.8114 33.192 48.4554 32.674 49.2254 30.658L52.4174 22.3H51.0594ZM61.5105 19.5H58.3745V30H59.7885V26.08H61.5105C64.1565 26.08 65.6545 25.03 65.6545 22.776C65.6545 20.536 64.1565 19.5 61.5105 19.5ZM61.3005 24.89H59.7885V20.69H61.3005C63.2885 20.69 64.2405 21.306 64.2405 22.762C64.2405 24.26 63.2325 24.89 61.3005 24.89ZM72.8242 27.704V25.24C72.8242 23.14 71.8862 22.146 69.8142 22.146C68.3722 22.146 67.4902 22.58 66.7762 23.798L67.8682 24.358C68.1902 23.658 68.9182 23.252 69.7022 23.252C71.0042 23.252 71.5222 23.728 71.5642 25.086C70.2062 25.086 68.8342 25.24 68.0922 25.52C67.1682 25.856 66.5662 26.626 66.5662 27.76C66.5662 29.188 67.4902 30.21 68.9602 30.21C70.1642 30.21 71.2142 29.692 71.5782 28.908L71.8582 30H73.1182C72.9362 29.398 72.8242 28.586 72.8242 27.704ZM69.3662 29.076C68.4422 29.076 67.9102 28.474 67.9102 27.732C67.9102 27.102 68.1622 26.71 68.7082 26.514C69.2262 26.318 70.3462 26.178 71.5642 26.164L71.5782 27.088C71.4802 28.264 70.4442 29.076 69.3662 29.076ZM75.7302 21.068C76.3182 21.068 76.6402 20.732 76.6402 20.158C76.6402 19.57 76.3182 19.248 75.7302 19.248C75.1422 19.248 74.8202 19.57 74.8202 20.158C74.8202 20.732 75.1422 21.068 75.7302 21.068ZM75.0442 22.3V30H76.3882V22.3H75.0442ZM82.7096 22.132C81.5056 22.132 80.7636 22.468 80.0076 23.266V22.3H78.6636V30H80.0076V25.002C80.1616 23.994 81.1416 23.322 82.0376 23.322C83.2556 23.322 83.7316 24.036 83.7316 25.282V30H85.0756V24.834C85.0756 23.014 84.1236 22.132 82.7096 22.132ZM90.7408 28.698C90.5728 28.74 90.4048 28.754 90.2648 28.754C89.5788 28.754 89.2148 28.348 89.2148 27.438V23.42H90.6288V22.3H89.2148V19.738H87.8708V22.3H86.6108V23.42H87.8708V27.844C87.8708 29.174 88.6548 30 90.0548 30C90.2648 30 90.5028 29.986 90.8528 29.888L90.7408 28.698ZM98.8738 26.108C98.8738 23.672 97.6418 22.118 95.3878 22.118C93.2318 22.118 91.8318 23.742 91.8318 26.178C91.8318 28.614 93.2598 30.238 95.4718 30.238C97.0118 30.238 98.0758 29.524 98.5938 28.334L97.3898 27.872C97.0398 28.656 96.3538 29.118 95.4718 29.118C94.2958 29.118 93.3578 28.152 93.2038 26.64H98.8318C98.8598 26.584 98.8738 26.374 98.8738 26.108ZM93.2038 25.534C93.3718 24.064 94.1138 23.238 95.3738 23.238C96.6898 23.238 97.4458 24.064 97.4458 25.52L93.2038 25.534ZM103.539 22.132C102.643 22.132 101.971 22.44 101.271 23.182V22.3H99.9272V30H101.271V24.75C101.523 23.91 102.335 23.364 103.105 23.364C103.497 23.364 103.805 23.42 104.085 23.532L104.337 22.216C104.155 22.146 103.973 22.132 103.539 22.132ZM23.128 36.5L20.174 45.418L17.234 36.5H14.98V47H16.394V38.096L19.376 46.846H20.93L23.954 37.97V47H25.368V36.5H23.128ZM27.3957 36.5V47H28.8097V36.5H27.3957ZM38.2454 36.5H29.9994V37.69H33.4154V47H34.8294V37.69H38.2454V36.5ZM50.659 39.328L51.961 38.726C51.135 37.214 49.805 36.43 48.097 36.43C45.311 36.43 43.435 38.6 43.435 41.862C43.435 45.068 45.311 47.21 48.097 47.21C49.889 47.21 51.261 46.342 51.989 44.634L50.659 44.242C50.211 45.474 49.259 46.02 48.083 46.02C46.151 46.02 44.849 44.354 44.849 41.848C44.849 39.314 46.151 37.62 48.097 37.62C49.203 37.62 50.071 38.208 50.659 39.328ZM56.7407 47.238C58.9527 47.238 60.4227 45.614 60.4227 43.178C60.4227 40.742 58.9527 39.118 56.7407 39.118C54.5287 39.118 53.0447 40.742 53.0447 43.178C53.0447 45.614 54.5287 47.238 56.7407 47.238ZM56.7407 46.118C55.3267 46.118 54.3887 44.942 54.3887 43.164C54.3887 41.414 55.3267 40.238 56.7407 40.238C58.1407 40.238 59.0787 41.414 59.0787 43.164C59.0787 44.942 58.1407 46.118 56.7407 46.118ZM70.4282 39.118C69.2102 39.118 68.4402 39.58 67.6982 40.588C67.3902 39.608 66.7042 39.132 65.7942 39.132C64.6602 39.132 63.9602 39.496 63.2322 40.35V39.3H61.8882V47H63.2322V42.142C63.3722 41.05 64.2822 40.308 65.1222 40.308C66.1442 40.308 66.5362 41.022 66.5362 42.282V47H67.8662V42.268C67.9502 41.092 68.9162 40.294 69.7562 40.294C70.7782 40.294 71.1702 41.008 71.1702 42.268V46.986H72.5142V41.82C72.5142 40 71.6742 39.118 70.4282 39.118ZM78.176 39.09C77.21 39.09 76.314 39.622 75.824 40.462V39.3H74.48V50.192H75.824V45.936C76.37 46.664 77.266 47.154 78.176 47.154C80.304 47.154 81.718 45.516 81.718 43.08C81.718 40.686 80.304 39.09 78.176 39.09ZM78.218 46.034C76.748 46.034 75.824 45.25 75.824 43.136C75.824 41.134 76.762 40.21 78.176 40.21C79.492 40.21 80.374 41.372 80.374 43.094C80.374 44.844 79.492 46.034 78.218 46.034ZM88.257 39.3V44.298C88.103 45.25 87.123 45.964 86.199 45.964C85.009 45.964 84.533 45.208 84.533 44.018V39.3H83.189V44.466C83.189 46.286 84.141 47.21 85.555 47.21C86.759 47.21 87.501 46.79 88.257 45.866V47H89.601V39.3H88.257ZM95.2662 45.698C95.0982 45.74 94.9302 45.754 94.7902 45.754C94.1042 45.754 93.7402 45.348 93.7402 44.438V40.42H95.1542V39.3H93.7402V36.738H92.3962V39.3H91.1362V40.42H92.3962V44.844C92.3962 46.174 93.1802 47 94.5802 47C94.7902 47 95.0282 46.986 95.3782 46.888L95.2662 45.698ZM103.399 43.108C103.399 40.672 102.167 39.118 99.9132 39.118C97.7572 39.118 96.3572 40.742 96.3572 43.178C96.3572 45.614 97.7852 47.238 99.9972 47.238C101.537 47.238 102.601 46.524 103.119 45.334L101.915 44.872C101.565 45.656 100.879 46.118 99.9972 46.118C98.8212 46.118 97.8832 45.152 97.7292 43.64H103.357C103.385 43.584 103.399 43.374 103.399 43.108ZM97.7292 42.534C97.8972 41.064 98.6392 40.238 99.8992 40.238C101.215 40.238 101.971 41.064 101.971 42.52L97.7292 42.534ZM108.065 39.132C107.169 39.132 106.497 39.44 105.797 40.182V39.3H104.453V47H105.797V41.75C106.049 40.91 106.861 40.364 107.631 40.364C108.023 40.364 108.331 40.42 108.611 40.532L108.863 39.216C108.681 39.146 108.499 39.132 108.065 39.132ZM121.677 43.948C121.677 42.156 119.773 41.316 118.177 40.63C117.029 40.14 116.035 39.692 116.035 39.02C116.035 38.082 116.819 37.55 118.051 37.55C119.059 37.55 119.885 38.124 120.263 39.146L121.411 38.516C120.879 37.13 119.563 36.36 118.051 36.36C115.965 36.36 114.621 37.494 114.621 38.992C114.621 40.504 116.231 41.246 117.729 41.904C119.059 42.492 120.305 43.066 120.305 44.102C120.305 45.32 119.367 46.006 117.981 46.006C116.861 46.006 115.811 45.292 115.167 44.046L114.117 44.914C114.845 46.37 116.329 47.196 117.967 47.196C120.207 47.196 121.677 46.048 121.677 43.948ZM129.561 45.334L128.357 44.872C128.007 45.656 127.321 46.132 126.439 46.132C125.137 46.132 124.143 44.942 124.143 43.164C124.143 41.414 125.109 40.224 126.439 40.224C127.405 40.224 128.147 40.812 128.469 41.736L129.631 41.176C129.141 39.888 128.105 39.118 126.439 39.118C124.255 39.118 122.799 40.742 122.799 43.178C122.799 45.614 124.227 47.238 126.439 47.238C127.979 47.238 129.043 46.524 129.561 45.334ZM131.799 38.068C132.387 38.068 132.709 37.732 132.709 37.158C132.709 36.57 132.387 36.248 131.799 36.248C131.211 36.248 130.889 36.57 130.889 37.158C130.889 37.732 131.211 38.068 131.799 38.068ZM131.113 39.3V47H132.457V39.3H131.113ZM141.284 43.108C141.284 40.672 140.052 39.118 137.798 39.118C135.642 39.118 134.242 40.742 134.242 43.178C134.242 45.614 135.67 47.238 137.882 47.238C139.422 47.238 140.486 46.524 141.004 45.334L139.8 44.872C139.45 45.656 138.764 46.118 137.882 46.118C136.706 46.118 135.768 45.152 135.614 43.64H141.242C141.27 43.584 141.284 43.374 141.284 43.108ZM135.614 42.534C135.782 41.064 136.524 40.238 137.784 40.238C139.1 40.238 139.856 41.064 139.856 42.52L135.614 42.534ZM146.803 39.132C145.599 39.132 144.857 39.468 144.101 40.266V39.3H142.757V47H144.101V42.002C144.255 40.994 145.235 40.322 146.131 40.322C147.349 40.322 147.825 41.036 147.825 42.282V47H149.169V41.834C149.169 40.014 148.217 39.132 146.803 39.132ZM157.397 45.334L156.193 44.872C155.843 45.656 155.157 46.132 154.275 46.132C152.973 46.132 151.979 44.942 151.979 43.164C151.979 41.414 152.945 40.224 154.275 40.224C155.241 40.224 155.983 40.812 156.305 41.736L157.467 41.176C156.977 39.888 155.941 39.118 154.275 39.118C152.091 39.118 150.635 40.742 150.635 43.178C150.635 45.614 152.063 47.238 154.275 47.238C155.815 47.238 156.879 46.524 157.397 45.334ZM165.346 43.108C165.346 40.672 164.114 39.118 161.86 39.118C159.704 39.118 158.304 40.742 158.304 43.178C158.304 45.614 159.732 47.238 161.944 47.238C163.484 47.238 164.548 46.524 165.066 45.334L163.862 44.872C163.512 45.656 162.826 46.118 161.944 46.118C160.768 46.118 159.83 45.152 159.676 43.64H165.304C165.332 43.584 165.346 43.374 165.346 43.108ZM159.676 42.534C159.844 41.064 160.586 40.238 161.846 40.238C163.162 40.238 163.918 41.064 163.918 42.52L159.676 42.534ZM175.084 43.164C177.016 41.47 177.94 40.574 177.94 39.174C177.94 37.48 176.54 36.36 174.524 36.36C172.998 36.36 171.724 37.368 171.262 38.866L172.592 39.384C172.9 38.278 173.656 37.55 174.622 37.55C175.686 37.55 176.512 38.236 176.512 39.258C176.512 39.972 175.868 40.644 174.048 42.254C172.774 43.416 171.458 44.634 171.29 45.628H171.276V46.986H177.898V45.586L172.844 45.614C173.208 44.816 174.118 44.004 175.084 43.164ZM182.905 47.21C185.131 47.21 186.517 45.278 186.517 41.862C186.517 38.348 185.131 36.374 182.905 36.374C180.679 36.374 179.279 38.348 179.279 41.862C179.279 45.278 180.679 47.21 182.905 47.21ZM182.905 46.048C181.575 46.048 180.693 44.536 180.693 41.848C180.693 39.09 181.575 37.536 182.905 37.536C184.221 37.536 185.103 39.09 185.103 41.848C185.103 44.536 184.221 46.048 182.905 46.048ZM191.832 43.164C193.764 41.47 194.688 40.574 194.688 39.174C194.688 37.48 193.288 36.36 191.272 36.36C189.746 36.36 188.472 37.368 188.01 38.866L189.34 39.384C189.648 38.278 190.404 37.55 191.37 37.55C192.434 37.55 193.26 38.236 193.26 39.258C193.26 39.972 192.616 40.644 190.796 42.254C189.522 43.416 188.206 44.634 188.038 45.628H188.024V46.986H194.646V45.586L189.592 45.614C189.956 44.816 190.866 44.004 191.832 43.164ZM196.447 44.774C196.811 46.286 198.085 47.196 199.863 47.196C201.949 47.196 203.349 45.894 203.349 44.13C203.349 42.87 202.565 41.806 201.207 41.442C202.257 41.036 202.859 40.154 202.859 39.202C202.859 37.508 201.627 36.388 199.765 36.388C198.281 36.388 197.189 37.158 196.769 38.39L198.085 38.894C198.295 38.082 198.925 37.564 199.765 37.564C200.759 37.564 201.445 38.222 201.445 39.202C201.445 40.196 200.605 40.994 199.387 40.994H198.603V42.226H199.793C200.941 42.226 201.935 42.842 201.935 44.13C201.935 45.18 201.095 46.006 199.863 46.006C198.799 46.006 198.057 45.432 197.819 44.48L196.447 44.774ZM18.69 62.698C18.522 62.74 18.354 62.754 18.214 62.754C17.528 62.754 17.164 62.348 17.164 61.438V57.42H18.578V56.3H17.164V53.738H15.82V56.3H14.56V57.42H15.82V61.844C15.82 63.174 16.604 64 18.004 64C18.214 64 18.452 63.986 18.802 63.888L18.69 62.698ZM23.967 56.09C23.001 56.09 22.105 56.622 21.615 57.462V56.3H20.271V67.192H21.615V62.936C22.161 63.664 23.057 64.154 23.967 64.154C26.095 64.154 27.509 62.516 27.509 60.08C27.509 57.686 26.095 56.09 23.967 56.09ZM24.009 63.034C22.539 63.034 21.615 62.25 21.615 60.136C21.615 58.134 22.553 57.21 23.967 57.21C25.283 57.21 26.165 58.372 26.165 60.094C26.165 61.844 25.283 63.034 24.009 63.034ZM34.748 61.704V59.24C34.748 57.14 33.81 56.146 31.738 56.146C30.296 56.146 29.414 56.58 28.7 57.798L29.792 58.358C30.114 57.658 30.842 57.252 31.626 57.252C32.928 57.252 33.446 57.728 33.488 59.086C32.13 59.086 30.758 59.24 30.016 59.52C29.092 59.856 28.49 60.626 28.49 61.76C28.49 63.188 29.414 64.21 30.884 64.21C32.088 64.21 33.138 63.692 33.502 62.908L33.782 64H35.042C34.86 63.398 34.748 62.586 34.748 61.704ZM31.29 63.076C30.366 63.076 29.834 62.474 29.834 61.732C29.834 61.102 30.086 60.71 30.632 60.514C31.15 60.318 32.27 60.178 33.488 60.164L33.502 61.088C33.404 62.264 32.368 63.076 31.29 63.076ZM37.654 55.068C38.242 55.068 38.564 54.732 38.564 54.158C38.564 53.57 38.242 53.248 37.654 53.248C37.066 53.248 36.744 53.57 36.744 54.158C36.744 54.732 37.066 55.068 37.654 55.068ZM36.968 56.3V64H38.312V56.3H36.968ZM44.6334 56.132C43.4294 56.132 42.6874 56.468 41.9314 57.266V56.3H40.5874V64H41.9314V59.002C42.0854 57.994 43.0654 57.322 43.9614 57.322C45.1794 57.322 45.6554 58.036 45.6554 59.282V64H46.9994V58.834C46.9994 57.014 46.0474 56.132 44.6334 56.132ZM52.6646 62.698C52.4966 62.74 52.3286 62.754 52.1886 62.754C51.5026 62.754 51.1386 62.348 51.1386 61.438V57.42H52.5526V56.3H51.1386V53.738H49.7946V56.3H48.5346V57.42H49.7946V61.844C49.7946 63.174 50.5786 64 51.9786 64C52.1886 64 52.4266 63.986 52.7766 63.888L52.6646 62.698ZM60.7976 60.108C60.7976 57.672 59.5656 56.118 57.3116 56.118C55.1556 56.118 53.7556 57.742 53.7556 60.178C53.7556 62.614 55.1836 64.238 57.3956 64.238C58.9356 64.238 59.9996 63.524 60.5176 62.334L59.3136 61.872C58.9636 62.656 58.2776 63.118 57.3956 63.118C56.2196 63.118 55.2816 62.152 55.1276 60.64H60.7556C60.7836 60.584 60.7976 60.374 60.7976 60.108ZM55.1276 59.534C55.2956 58.064 56.0376 57.238 57.2976 57.238C58.6136 57.238 59.3696 58.064 59.3696 59.52L55.1276 59.534ZM65.463 56.132C64.567 56.132 63.895 56.44 63.195 57.182V56.3H61.851V64H63.195V58.75C63.447 57.91 64.259 57.364 65.029 57.364C65.421 57.364 65.729 57.42 66.009 57.532L66.261 56.216C66.079 56.146 65.897 56.132 65.463 56.132ZM78.315 59.002C78.315 59.4313 78.2637 59.8513 78.161 60.262C78.0677 60.6727 77.9183 61.046 77.713 61.382C77.5077 61.7087 77.2557 61.9747 76.957 62.18C76.6583 62.376 76.3037 62.474 75.893 62.474C75.4637 62.474 75.123 62.3527 74.871 62.11C74.6283 61.858 74.479 61.5733 74.423 61.256H74.353C74.185 61.6013 73.9377 61.8907 73.611 62.124C73.2843 62.3573 72.8737 62.474 72.379 62.474C71.6697 62.474 71.119 62.236 70.727 61.76C70.3443 61.284 70.153 60.654 70.153 59.87C70.153 59.254 70.2743 58.7127 70.517 58.246C70.7597 57.77 71.1003 57.3967 71.539 57.126C71.987 56.8553 72.5143 56.72 73.121 56.72C73.5317 56.72 73.933 56.7573 74.325 56.832C74.7263 56.8973 75.039 56.972 75.263 57.056L75.123 59.898C75.1137 60.066 75.109 60.1873 75.109 60.262C75.109 60.3273 75.109 60.374 75.109 60.402C75.109 60.8873 75.193 61.2093 75.361 61.368C75.5383 61.5267 75.7437 61.606 75.977 61.606C76.2663 61.606 76.509 61.4893 76.705 61.256C76.9103 61.0133 77.0643 60.696 77.167 60.304C77.279 59.9027 77.335 59.464 77.335 58.988C77.335 58.12 77.1577 57.3873 76.803 56.79C76.4577 56.1833 75.977 55.7213 75.361 55.404C74.7543 55.0867 74.0637 54.928 73.289 54.928C72.225 54.928 71.3243 55.1473 70.587 55.586C69.859 56.0247 69.3037 56.6313 68.921 57.406C68.5477 58.1713 68.361 59.0487 68.361 60.038C68.361 61.4193 68.725 62.4787 69.453 63.216C70.181 63.9533 71.231 64.322 72.603 64.322C73.1723 64.322 73.7137 64.2567 74.227 64.126C74.7497 64.0047 75.2117 63.8693 75.613 63.72V64.672C75.2117 64.84 74.759 64.9753 74.255 65.078C73.7603 65.19 73.2097 65.246 72.603 65.246C71.5017 65.246 70.559 65.0407 69.775 64.63C68.991 64.2193 68.389 63.6313 67.969 62.866C67.5583 62.0913 67.353 61.1627 67.353 60.08C67.353 59.212 67.4883 58.4093 67.759 57.672C68.0297 56.9253 68.4217 56.2813 68.935 55.74C69.4483 55.1893 70.069 54.7647 70.797 54.466C71.5343 54.158 72.365 54.004 73.289 54.004C74.2597 54.004 75.123 54.2047 75.879 54.606C76.635 55.0073 77.2277 55.5813 77.657 56.328C78.0957 57.0747 78.315 57.966 78.315 59.002ZM71.245 59.898C71.245 60.4953 71.3617 60.9293 71.595 61.2C71.8377 61.4707 72.1597 61.606 72.561 61.606C73.0837 61.606 73.457 61.41 73.681 61.018C73.9143 60.626 74.0497 60.1173 74.087 59.492L74.171 57.742C74.0497 57.7047 73.8957 57.672 73.709 57.644C73.5223 57.616 73.331 57.602 73.135 57.602C72.6777 57.602 72.309 57.714 72.029 57.938C71.749 58.162 71.5483 58.4513 71.427 58.806C71.3057 59.1513 71.245 59.5153 71.245 59.898ZM88.6528 56.118C87.4348 56.118 86.6648 56.58 85.9228 57.588C85.6148 56.608 84.9288 56.132 84.0188 56.132C82.8848 56.132 82.1848 56.496 81.4568 57.35V56.3H80.1128V64H81.4568V59.142C81.5968 58.05 82.5068 57.308 83.3468 57.308C84.3688 57.308 84.7608 58.022 84.7608 59.282V64H86.0908V59.268C86.1748 58.092 87.1408 57.294 87.9808 57.294C89.0028 57.294 89.3948 58.008 89.3948 59.268V63.986H90.7388V58.82C90.7388 57 89.8988 56.118 88.6528 56.118ZM93.5446 55.068C94.1326 55.068 94.4546 54.732 94.4546 54.158C94.4546 53.57 94.1326 53.248 93.5446 53.248C92.9566 53.248 92.6346 53.57 92.6346 54.158C92.6346 54.732 92.9566 55.068 93.5446 55.068ZM92.8586 56.3V64H94.2026V56.3H92.8586ZM100.188 62.698C100.02 62.74 99.852 62.754 99.712 62.754C99.026 62.754 98.662 62.348 98.662 61.438V57.42H100.076V56.3H98.662V53.738H97.318V56.3H96.058V57.42H97.318V61.844C97.318 63.174 98.102 64 99.502 64C99.712 64 99.95 63.986 100.3 63.888L100.188 62.698ZM102.259 64.196C102.847 64.196 103.169 63.86 103.169 63.286C103.169 62.698 102.847 62.376 102.259 62.376C101.671 62.376 101.349 62.698 101.349 63.286C101.349 63.86 101.671 64.196 102.259 64.196ZM111.261 60.108C111.261 57.672 110.029 56.118 107.775 56.118C105.619 56.118 104.219 57.742 104.219 60.178C104.219 62.614 105.647 64.238 107.859 64.238C109.399 64.238 110.463 63.524 110.981 62.334L109.777 61.872C109.427 62.656 108.741 63.118 107.859 63.118C106.683 63.118 105.745 62.152 105.591 60.64H111.219C111.247 60.584 111.261 60.374 111.261 60.108ZM105.591 59.534C105.759 58.064 106.501 57.238 107.761 57.238C109.077 57.238 109.833 58.064 109.833 59.52L105.591 59.534ZM118.138 52.8V57.364C117.592 56.636 116.696 56.146 115.786 56.146C113.658 56.146 112.244 57.784 112.244 60.22C112.244 62.614 113.658 64.21 115.786 64.21C116.752 64.21 117.648 63.678 118.138 62.838V64H119.482V52.8H118.138ZM115.786 63.09C114.47 63.09 113.588 61.928 113.588 60.206C113.588 58.456 114.47 57.266 115.744 57.266C117.214 57.266 118.138 58.05 118.138 60.164C118.138 62.166 117.2 63.09 115.786 63.09ZM126.511 56.3V61.298C126.357 62.25 125.377 62.964 124.453 62.964C123.263 62.964 122.787 62.208 122.787 61.018V56.3H121.443V61.466C121.443 63.286 122.395 64.21 123.809 64.21C125.013 64.21 125.755 63.79 126.511 62.866V64H127.855V56.3H126.511Z" fill="black"/>
<a href="mailto:tpainter@mit.edu">
<rect fill="black" fill-opacity="0" y="34.1" width="114.835" height="16.8"/>
</a>
<path d="M158.98 84H165.63V82.768H160.394V79.086H165.014V77.896H160.394V74.718H165.63V73.5H158.98V84ZM173.547 81.788C173.547 80.276 171.951 79.786 170.593 79.422C169.641 79.17 168.787 78.89 168.787 78.33C168.787 77.742 169.389 77.252 170.285 77.252C170.943 77.252 171.797 77.56 172.189 78.288L173.323 77.728C172.833 76.72 171.615 76.132 170.355 76.132C168.591 76.132 167.443 77.028 167.443 78.456C167.443 79.884 168.955 80.332 170.103 80.64C171.293 80.948 172.231 81.2 172.231 81.914C172.231 82.46 171.489 83.034 170.397 83.034C169.473 83.034 168.619 82.558 168.185 81.732L166.967 82.292C167.499 83.398 168.941 84.182 170.397 84.182C172.231 84.182 173.547 83.16 173.547 81.788ZM181.244 81.788C181.244 80.276 179.648 79.786 178.29 79.422C177.338 79.17 176.484 78.89 176.484 78.33C176.484 77.742 177.086 77.252 177.982 77.252C178.64 77.252 179.494 77.56 179.886 78.288L181.02 77.728C180.53 76.72 179.312 76.132 178.052 76.132C176.288 76.132 175.14 77.028 175.14 78.456C175.14 79.884 176.652 80.332 177.8 80.64C178.99 80.948 179.928 81.2 179.928 81.914C179.928 82.46 179.186 83.034 178.094 83.034C177.17 83.034 176.316 82.558 175.882 81.732L174.664 82.292C175.196 83.398 176.638 84.182 178.094 84.182C179.928 84.182 181.244 83.16 181.244 81.788ZM189.403 80.108C189.403 77.672 188.171 76.118 185.917 76.118C183.761 76.118 182.361 77.742 182.361 80.178C182.361 82.614 183.789 84.238 186.001 84.238C187.541 84.238 188.605 83.524 189.123 82.334L187.919 81.872C187.569 82.656 186.883 83.118 186.001 83.118C184.825 83.118 183.887 82.152 183.733 80.64H189.361C189.389 80.584 189.403 80.374 189.403 80.108ZM183.733 79.534C183.901 78.064 184.643 77.238 185.903 77.238C187.219 77.238 187.975 78.064 187.975 79.52L183.733 79.534ZM194.922 76.132C193.718 76.132 192.976 76.468 192.22 77.266V76.3H190.876V84H192.22V79.002C192.374 77.994 193.354 77.322 194.25 77.322C195.468 77.322 195.944 78.036 195.944 79.282V84H197.288V78.834C197.288 77.014 196.336 76.132 194.922 76.132ZM202.954 82.698C202.786 82.74 202.618 82.754 202.478 82.754C201.792 82.754 201.428 82.348 201.428 81.438V77.42H202.842V76.3H201.428V73.738H200.084V76.3H198.824V77.42H200.084V81.844C200.084 83.174 200.868 84 202.268 84C202.478 84 202.716 83.986 203.066 83.888L202.954 82.698ZM205.375 75.068C205.963 75.068 206.285 74.732 206.285 74.158C206.285 73.57 205.963 73.248 205.375 73.248C204.787 73.248 204.465 73.57 204.465 74.158C204.465 74.732 204.787 75.068 205.375 75.068ZM204.689 76.3V84H206.033V76.3H204.689ZM214.076 81.704V79.24C214.076 77.14 213.138 76.146 211.066 76.146C209.624 76.146 208.742 76.58 208.028 77.798L209.12 78.358C209.442 77.658 210.17 77.252 210.954 77.252C212.256 77.252 212.774 77.728 212.816 79.086C211.458 79.086 210.086 79.24 209.344 79.52C208.42 79.856 207.818 80.626 207.818 81.76C207.818 83.188 208.742 84.21 210.212 84.21C211.416 84.21 212.466 83.692 212.83 82.908L213.11 84H214.37C214.188 83.398 214.076 82.586 214.076 81.704ZM210.618 83.076C209.694 83.076 209.162 82.474 209.162 81.732C209.162 81.102 209.414 80.71 209.96 80.514C210.478 80.318 211.598 80.178 212.816 80.164L212.83 81.088C212.732 82.264 211.696 83.076 210.618 83.076ZM216.422 72.8V84H217.766V72.8H216.422Z" fill="black"/>
<path d="M190.728 289H192.142L188.306 278.5H186.752L182.916 289H184.274L185.338 286.046H189.664L190.728 289ZM185.772 284.856L187.508 280.026L189.244 284.856H185.772ZM196.878 281.132C195.982 281.132 195.31 281.44 194.61 282.182V281.3H193.266V289H194.61V283.75C194.862 282.91 195.674 282.364 196.444 282.364C196.836 282.364 197.144 282.42 197.424 282.532L197.676 281.216C197.494 281.146 197.312 281.132 196.878 281.132ZM205.01 285.108C205.01 282.672 203.778 281.118 201.524 281.118C199.368 281.118 197.968 282.742 197.968 285.178C197.968 287.614 199.396 289.238 201.608 289.238C203.148 289.238 204.212 288.524 204.73 287.334L203.526 286.872C203.176 287.656 202.49 288.118 201.608 288.118C200.432 288.118 199.494 287.152 199.34 285.64H204.968C204.996 285.584 205.01 285.374 205.01 285.108ZM199.34 284.534C199.508 283.064 200.25 282.238 201.51 282.238C202.826 282.238 203.582 283.064 203.582 284.52L199.34 284.534ZM206.973 289.196C207.561 289.196 207.883 288.86 207.883 288.286C207.883 287.698 207.561 287.376 206.973 287.376C206.385 287.376 206.063 287.698 206.063 288.286C206.063 288.86 206.385 289.196 206.973 289.196ZM213.468 281.132C212.264 281.132 211.522 281.468 210.766 282.266V281.3H209.422V289H210.766V284.002C210.92 282.994 211.9 282.322 212.796 282.322C214.014 282.322 214.49 283.036 214.49 284.282V289H215.834V283.834C215.834 282.014 214.882 281.132 213.468 281.132ZM223.558 286.704V284.24C223.558 282.14 222.62 281.146 220.548 281.146C219.106 281.146 218.224 281.58 217.51 282.798L218.602 283.358C218.924 282.658 219.652 282.252 220.436 282.252C221.738 282.252 222.256 282.728 222.298 284.086C220.94 284.086 219.568 284.24 218.826 284.52C217.902 284.856 217.3 285.626 217.3 286.76C217.3 288.188 218.224 289.21 219.694 289.21C220.898 289.21 221.948 288.692 222.312 287.908L222.592 289H223.852C223.67 288.398 223.558 287.586 223.558 286.704ZM220.1 288.076C219.176 288.076 218.644 287.474 218.644 286.732C218.644 286.102 218.896 285.71 219.442 285.514C219.96 285.318 221.08 285.178 222.298 285.164L222.312 286.088C222.214 287.264 221.178 288.076 220.1 288.076Z" fill="black"/>

<a href="https://www.are.na/trudy-painter">
<rect fill="black" fill-opacity="0" x="12.3564" y="-0.9" width="42.2931" height="16.8"/>
</a>

<a href="https://www.goodreads.com/review/list/117820794?shelf=read">
<path d="M346.036 323.624V324.814H348.976V325.052C348.976 327.04 347.548 328.048 345.77 328.048C343.908 328.048 342.662 326.382 342.662 323.876C342.662 321.342 343.964 319.648 345.91 319.648C347.072 319.648 347.982 320.236 348.597 321.356L349.9 320.754C349.046 319.242 347.674 318.458 345.91 318.458C343.124 318.458 341.248 320.628 341.248 323.89C341.248 327.096 343.068 329.238 345.798 329.238C347.268 329.238 348.374 328.678 349.088 327.866L349.312 329H350.166V323.624H346.036ZM355.045 329.238C357.257 329.238 358.727 327.614 358.727 325.178C358.727 322.742 357.257 321.118 355.045 321.118C352.833 321.118 351.349 322.742 351.349 325.178C351.349 327.614 352.833 329.238 355.045 329.238ZM355.045 328.118C353.631 328.118 352.693 326.942 352.693 325.164C352.693 323.414 353.631 322.238 355.045 322.238C356.445 322.238 357.383 323.414 357.383 325.164C357.383 326.942 356.445 328.118 355.045 328.118ZM363.399 329.238C365.611 329.238 367.081 327.614 367.081 325.178C367.081 322.742 365.611 321.118 363.399 321.118C361.187 321.118 359.703 322.742 359.703 325.178C359.703 327.614 361.187 329.238 363.399 329.238ZM363.399 328.118C361.985 328.118 361.047 326.942 361.047 325.164C361.047 323.414 361.985 322.238 363.399 322.238C364.799 322.238 365.737 323.414 365.737 325.164C365.737 326.942 364.799 328.118 363.399 328.118ZM373.95 317.8V322.364C373.404 321.636 372.508 321.146 371.598 321.146C369.47 321.146 368.056 322.784 368.056 325.22C368.056 327.614 369.47 329.21 371.598 329.21C372.564 329.21 373.46 328.678 373.95 327.838V329H375.294V317.8H373.95ZM371.598 328.09C370.282 328.09 369.4 326.928 369.4 325.206C369.4 323.456 370.282 322.266 371.556 322.266C373.026 322.266 373.95 323.05 373.95 325.164C373.95 327.166 373.012 328.09 371.598 328.09ZM380.447 321.132C379.551 321.132 378.879 321.44 378.179 322.182V321.3H376.835V329H378.179V323.75C378.431 322.91 379.243 322.364 380.013 322.364C380.405 322.364 380.713 322.42 380.993 322.532L381.245 321.216C381.063 321.146 380.881 321.132 380.447 321.132ZM388.579 325.108C388.579 322.672 387.347 321.118 385.093 321.118C382.937 321.118 381.537 322.742 381.537 325.178C381.537 327.614 382.965 329.238 385.177 329.238C386.717 329.238 387.781 328.524 388.299 327.334L387.095 326.872C386.745 327.656 386.059 328.118 385.177 328.118C384.001 328.118 383.063 327.152 382.909 325.64H388.537C388.565 325.584 388.579 325.374 388.579 325.108ZM382.909 324.534C383.077 323.064 383.819 322.238 385.079 322.238C386.395 322.238 387.151 323.064 387.151 324.52L382.909 324.534ZM395.82 326.704V324.24C395.82 322.14 394.882 321.146 392.81 321.146C391.368 321.146 390.486 321.58 389.772 322.798L390.864 323.358C391.186 322.658 391.914 322.252 392.698 322.252C394 322.252 394.518 322.728 394.56 324.086C393.202 324.086 391.83 324.24 391.088 324.52C390.164 324.856 389.562 325.626 389.562 326.76C389.562 328.188 390.486 329.21 391.956 329.21C393.16 329.21 394.21 328.692 394.574 327.908L394.854 329H396.114C395.932 328.398 395.82 327.586 395.82 326.704ZM392.362 328.076C391.438 328.076 390.906 327.474 390.906 326.732C390.906 326.102 391.158 325.71 391.704 325.514C392.222 325.318 393.342 325.178 394.56 325.164L394.574 326.088C394.476 327.264 393.44 328.076 392.362 328.076ZM403.29 317.8V322.364C402.744 321.636 401.848 321.146 400.938 321.146C398.81 321.146 397.396 322.784 397.396 325.22C397.396 327.614 398.81 329.21 400.938 329.21C401.904 329.21 402.8 328.678 403.29 327.838V329H404.634V317.8H403.29ZM400.938 328.09C399.622 328.09 398.74 326.928 398.74 325.206C398.74 323.456 399.622 322.266 400.896 322.266C402.366 322.266 403.29 323.05 403.29 325.164C403.29 327.166 402.352 328.09 400.938 328.09ZM412.685 326.788C412.685 325.276 411.089 324.786 409.731 324.422C408.779 324.17 407.925 323.89 407.925 323.33C407.925 322.742 408.527 322.252 409.423 322.252C410.081 322.252 410.935 322.56 411.327 323.288L412.461 322.728C411.971 321.72 410.753 321.132 409.493 321.132C407.729 321.132 406.581 322.028 406.581 323.456C406.581 324.884 408.093 325.332 409.241 325.64C410.431 325.948 411.369 326.2 411.369 326.914C411.369 327.46 410.627 328.034 409.535 328.034C408.611 328.034 407.757 327.558 407.323 326.732L406.105 327.292C406.637 328.398 408.079 329.182 409.535 329.182C411.369 329.182 412.685 328.16 412.685 326.788Z" fill="black"/>
<rect fill="black" fill-opacity="0" x="28.6875" y="1.6" width="72.6277" height="16.8"/>
</a>

<a href="https://www.instagram.com/turdjournal/">
<path d="M432.156 381.238C435.082 381.238 437.028 379.096 437.028 375.89C437.028 372.628 435.082 370.458 432.156 370.458C429.23 370.458 427.27 372.628 427.27 375.89C427.27 379.096 429.23 381.238 432.156 381.238ZM432.156 380.048C430.07 380.048 428.684 378.382 428.684 375.876C428.684 373.342 430.07 371.648 432.156 371.648C434.242 371.648 435.614 373.342 435.614 375.876C435.614 378.382 434.242 380.048 432.156 380.048ZM443.641 373.3V378.298C443.487 379.25 442.507 379.964 441.583 379.964C440.393 379.964 439.917 379.208 439.917 378.018V373.3H438.573V378.466C438.573 380.286 439.525 381.21 440.939 381.21C442.143 381.21 442.885 380.79 443.641 379.866V381H444.985V373.3H443.641ZM450.65 379.698C450.482 379.74 450.314 379.754 450.174 379.754C449.488 379.754 449.124 379.348 449.124 378.438V374.42H450.538V373.3H449.124V370.738H447.78V373.3H446.52V374.42H447.78V378.844C447.78 380.174 448.564 381 449.964 381C450.174 381 450.412 380.986 450.762 380.888L450.65 379.698ZM456.109 371.018V369.8C453.799 369.828 452.889 370.696 452.889 373.062V373.44H451.881V374.56H452.889V381H454.233V374.56H455.899V373.44H454.233V372.782C454.233 371.536 454.401 371.06 456.109 371.018ZM458.348 372.068C458.936 372.068 459.258 371.732 459.258 371.158C459.258 370.57 458.936 370.248 458.348 370.248C457.76 370.248 457.438 370.57 457.438 371.158C457.438 371.732 457.76 372.068 458.348 372.068ZM457.662 373.3V381H459.006V373.3H457.662ZM464.992 379.698C464.824 379.74 464.656 379.754 464.516 379.754C463.83 379.754 463.466 379.348 463.466 378.438V374.42H464.88V373.3H463.466V370.738H462.122V373.3H460.862V374.42H462.122V378.844C462.122 380.174 462.906 381 464.306 381C464.516 381 464.754 380.986 465.104 380.888L464.992 379.698ZM472.663 378.788C472.663 377.276 471.067 376.786 469.709 376.422C468.757 376.17 467.903 375.89 467.903 375.33C467.903 374.742 468.505 374.252 469.401 374.252C470.059 374.252 470.913 374.56 471.305 375.288L472.439 374.728C471.949 373.72 470.731 373.132 469.471 373.132C467.707 373.132 466.559 374.028 466.559 375.456C466.559 376.884 468.071 377.332 469.219 377.64C470.409 377.948 471.347 378.2 471.347 378.914C471.347 379.46 470.605 380.034 469.513 380.034C468.589 380.034 467.735 379.558 467.301 378.732L466.083 379.292C466.615 380.398 468.057 381.182 469.513 381.182C471.347 381.182 472.663 380.16 472.663 378.788Z" fill="black"/>
<rect fill="black" fill-opacity="0" x="10.71" y="-0.9" width="46.5828" height="16.8"/>
</a>

<a href="https://vsco.co/bionicpinkytoe/gallery">
<path d="M395.635 395.5L392.401 404.474L389.181 395.5H387.767L391.603 406H393.157L396.993 395.5H395.635ZM405.179 402.948C405.179 401.156 403.275 400.316 401.679 399.63C400.531 399.14 399.537 398.692 399.537 398.02C399.537 397.082 400.321 396.55 401.553 396.55C402.561 396.55 403.387 397.124 403.765 398.146L404.913 397.516C404.381 396.13 403.065 395.36 401.553 395.36C399.467 395.36 398.123 396.494 398.123 397.992C398.123 399.504 399.733 400.246 401.231 400.904C402.561 401.492 403.807 402.066 403.807 403.102C403.807 404.32 402.869 405.006 401.483 405.006C400.363 405.006 399.313 404.292 398.669 403.046L397.619 403.914C398.347 405.37 399.831 406.196 401.469 406.196C403.709 406.196 405.179 405.048 405.179 402.948ZM413.595 398.328L414.897 397.726C414.071 396.214 412.741 395.43 411.033 395.43C408.247 395.43 406.371 397.6 406.371 400.862C406.371 404.068 408.247 406.21 411.033 406.21C412.825 406.21 414.197 405.342 414.925 403.634L413.595 403.242C413.147 404.474 412.195 405.02 411.019 405.02C409.087 405.02 407.785 403.354 407.785 400.848C407.785 398.314 409.087 396.62 411.033 396.62C412.139 396.62 413.007 397.208 413.595 398.328ZM420.936 406.238C423.862 406.238 425.808 404.096 425.808 400.89C425.808 397.628 423.862 395.458 420.936 395.458C418.01 395.458 416.05 397.628 416.05 400.89C416.05 404.096 418.01 406.238 420.936 406.238ZM420.936 405.048C418.85 405.048 417.464 403.382 417.464 400.876C417.464 398.342 418.85 396.648 420.936 396.648C423.022 396.648 424.394 398.342 424.394 400.876C424.394 403.382 423.022 405.048 420.936 405.048Z" fill="black"/>
<rect fill="black" fill-opacity="0" x="14.627" y="-0.9" width="38.7413" height="16.8"/>
</a>

<a href="https://open.spotify.com/user/trudypaintet?si=ZlW6diDKSl61x9oKhit5BA">
<path d="M240.981 375.948C240.981 374.156 239.077 373.316 237.481 372.63C236.333 372.14 235.339 371.692 235.339 371.02C235.339 370.082 236.123 369.55 237.355 369.55C238.363 369.55 239.189 370.124 239.567 371.146L240.715 370.516C240.183 369.13 238.867 368.36 237.355 368.36C235.269 368.36 233.925 369.494 233.925 370.992C233.925 372.504 235.535 373.246 237.033 373.904C238.363 374.492 239.609 375.066 239.609 376.102C239.609 377.32 238.671 378.006 237.285 378.006C236.165 378.006 235.115 377.292 234.471 376.046L233.421 376.914C234.149 378.37 235.633 379.196 237.271 379.196C239.511 379.196 240.981 378.048 240.981 375.948ZM246.288 371.09C245.322 371.09 244.426 371.622 243.936 372.462V371.3H242.592V382.192H243.936V377.936C244.482 378.664 245.378 379.154 246.288 379.154C248.416 379.154 249.83 377.516 249.83 375.08C249.83 372.686 248.416 371.09 246.288 371.09ZM246.33 378.034C244.86 378.034 243.936 377.25 243.936 375.136C243.936 373.134 244.874 372.21 246.288 372.21C247.604 372.21 248.486 373.372 248.486 375.094C248.486 376.844 247.604 378.034 246.33 378.034ZM254.507 379.238C256.719 379.238 258.189 377.614 258.189 375.178C258.189 372.742 256.719 371.118 254.507 371.118C252.295 371.118 250.811 372.742 250.811 375.178C250.811 377.614 252.295 379.238 254.507 379.238ZM254.507 378.118C253.093 378.118 252.155 376.942 252.155 375.164C252.155 373.414 253.093 372.238 254.507 372.238C255.907 372.238 256.845 373.414 256.845 375.164C256.845 376.942 255.907 378.118 254.507 378.118ZM263.365 377.698C263.197 377.74 263.029 377.754 262.889 377.754C262.203 377.754 261.839 377.348 261.839 376.438V372.42H263.253V371.3H261.839V368.738H260.495V371.3H259.235V372.42H260.495V376.844C260.495 378.174 261.279 379 262.679 379C262.889 379 263.127 378.986 263.477 378.888L263.365 377.698ZM265.786 370.068C266.374 370.068 266.696 369.732 266.696 369.158C266.696 368.57 266.374 368.248 265.786 368.248C265.198 368.248 264.876 368.57 264.876 369.158C264.876 369.732 265.198 370.068 265.786 370.068ZM265.1 371.3V379H266.444V371.3H265.1ZM272.597 369.018V367.8C270.287 367.828 269.377 368.696 269.377 371.062V371.44H268.369V372.56H269.377V379H270.721V372.56H272.387V371.44H270.721V370.782C270.721 369.536 270.889 369.06 272.597 369.018ZM279.219 371.3L277.021 377.502L274.879 371.3H273.507L276.377 378.986L276.027 379.938C275.747 380.708 275.383 380.974 274.991 380.974C274.739 380.974 274.445 380.946 274.305 380.904V382.066C274.431 382.136 274.669 382.192 274.907 382.192C275.971 382.192 276.615 381.674 277.385 379.658L280.577 371.3H279.219Z" fill="black"/>
<rect fill="black" fill-opacity="0" x="9.93066" y="-0.9" width="48.1359" height="16.8"/>
</a>

<a href="https://github.com/trudypainter">
<path d="M177.508 192.624V193.814H180.448V194.052C180.448 196.04 179.02 197.048 177.242 197.048C175.38 197.048 174.134 195.382 174.134 192.876C174.134 190.342 175.436 188.648 177.382 188.648C178.544 188.648 179.454 189.236 180.07 190.356L181.372 189.754C180.518 188.242 179.146 187.458 177.382 187.458C174.596 187.458 172.72 189.628 172.72 192.89C172.72 196.096 174.54 198.238 177.27 198.238C178.74 198.238 179.846 197.678 180.56 196.866L180.784 198H181.638V192.624H177.508ZM184.152 189.068C184.74 189.068 185.062 188.732 185.062 188.158C185.062 187.57 184.74 187.248 184.152 187.248C183.564 187.248 183.242 187.57 183.242 188.158C183.242 188.732 183.564 189.068 184.152 189.068ZM183.466 190.3V198H184.81V190.3H183.466ZM190.795 196.698C190.627 196.74 190.459 196.754 190.319 196.754C189.633 196.754 189.269 196.348 189.269 195.438V191.42H190.683V190.3H189.269V187.738H187.925V190.3H186.665V191.42H187.925V195.844C187.925 197.174 188.709 198 190.109 198C190.319 198 190.557 197.986 190.907 197.888L190.795 196.698ZM196.422 190.132C195.218 190.132 194.476 190.468 193.72 191.266V186.8H192.376V198H193.72V193.002C193.874 192.064 194.854 191.434 195.736 191.434C196.968 191.434 197.444 192.106 197.444 193.282V198H198.788V192.834C198.788 191.014 197.836 190.132 196.422 190.132ZM205.812 190.3V195.298C205.658 196.25 204.678 196.964 203.754 196.964C202.564 196.964 202.088 196.208 202.088 195.018V190.3H200.744V195.466C200.744 197.286 201.696 198.21 203.11 198.21C204.314 198.21 205.056 197.79 205.812 196.866V198H207.156V190.3H205.812ZM212.807 190.146C211.897 190.146 211.001 190.636 210.455 191.364V186.8H209.111V198H210.455V196.838C210.945 197.678 211.841 198.21 212.807 198.21C214.935 198.21 216.349 196.614 216.349 194.22C216.349 191.784 214.935 190.146 212.807 190.146ZM212.807 197.09C211.393 197.09 210.455 196.166 210.455 194.164C210.455 192.05 211.379 191.266 212.849 191.266C214.123 191.266 215.005 192.456 215.005 194.206C215.005 195.928 214.123 197.09 212.807 197.09Z" fill="black"/>
<rect fill="black" fill-opacity="0" x="11.1602" y="-0.9" width="44.6787" height="16.8"/>
</a>

<a href="https://docs.google.com/spreadsheets/d/1pBokIjBV7lxDYNxqqxfLrNb7h3h4GuhWSbrrTGd9Fho/edit#gid=0">
<path d="M231.73 136L229.266 131.45C230.736 131.058 231.408 130.106 231.408 128.538C231.408 126.466 230.05 125.5 227.404 125.5H224.128V136H225.542V131.66H227.404C227.586 131.66 227.754 131.66 227.922 131.646L230.316 136H231.73ZM227.194 130.47H225.542V126.69H227.194C229.224 126.69 230.036 127.236 230.036 128.538C230.036 129.896 229.224 130.47 227.194 130.47ZM239.677 132.108C239.677 129.672 238.445 128.118 236.191 128.118C234.035 128.118 232.635 129.742 232.635 132.178C232.635 134.614 234.063 136.238 236.275 136.238C237.815 136.238 238.879 135.524 239.397 134.334L238.193 133.872C237.843 134.656 237.157 135.118 236.275 135.118C235.099 135.118 234.161 134.152 234.007 132.64H239.635C239.663 132.584 239.677 132.374 239.677 132.108ZM234.007 131.534C234.175 130.064 234.917 129.238 236.177 129.238C237.493 129.238 238.249 130.064 238.249 131.52L234.007 131.534ZM247.24 133.788C247.24 132.276 245.644 131.786 244.286 131.422C243.334 131.17 242.48 130.89 242.48 130.33C242.48 129.742 243.082 129.252 243.978 129.252C244.636 129.252 245.49 129.56 245.882 130.288L247.016 129.728C246.526 128.72 245.308 128.132 244.048 128.132C242.284 128.132 241.136 129.028 241.136 130.456C241.136 131.884 242.648 132.332 243.796 132.64C244.986 132.948 245.924 133.2 245.924 133.914C245.924 134.46 245.182 135.034 244.09 135.034C243.166 135.034 242.312 134.558 241.878 133.732L240.66 134.292C241.192 135.398 242.634 136.182 244.09 136.182C245.924 136.182 247.24 135.16 247.24 133.788ZM253.915 128.3V133.298C253.761 134.25 252.781 134.964 251.857 134.964C250.667 134.964 250.191 134.208 250.191 133.018V128.3H248.847V133.466C248.847 135.286 249.799 136.21 251.213 136.21C252.417 136.21 253.159 135.79 253.915 134.866V136H255.259V128.3H253.915ZM265.754 128.118C264.536 128.118 263.766 128.58 263.024 129.588C262.716 128.608 262.03 128.132 261.12 128.132C259.986 128.132 259.286 128.496 258.558 129.35V128.3H257.214V136H258.558V131.142C258.698 130.05 259.608 129.308 260.448 129.308C261.47 129.308 261.862 130.022 261.862 131.282V136H263.192V131.268C263.276 130.092 264.242 129.294 265.082 129.294C266.104 129.294 266.496 130.008 266.496 131.268V135.986H267.84V130.82C267.84 129 267 128.118 265.754 128.118ZM276.358 132.108C276.358 129.672 275.126 128.118 272.872 128.118C270.716 128.118 269.316 129.742 269.316 132.178C269.316 134.614 270.744 136.238 272.956 136.238C274.496 136.238 275.56 135.524 276.078 134.334L274.874 133.872C274.524 134.656 273.838 135.118 272.956 135.118C271.78 135.118 270.842 134.152 270.688 132.64H276.316C276.344 132.584 276.358 132.374 276.358 132.108ZM270.688 131.534C270.856 130.064 271.598 129.238 272.858 129.238C274.174 129.238 274.93 130.064 274.93 131.52L270.688 131.534Z" fill="black"/>
<rect fill="black" fill-opacity="0" x="7.14844" y="-0.9" width="53.6997" height="16.8"/>
</a>

<path d="M131.5 177.818V180.954H142V179.54H138.08V177.818C138.08 175.172 137.03 173.674 134.776 173.674C132.536 173.674 131.5 175.172 131.5 177.818ZM136.89 178.028V179.54H132.69V178.028C132.69 176.04 133.306 175.088 134.762 175.088C136.26 175.088 136.89 176.096 136.89 178.028ZM134.132 169.08C134.132 169.976 134.44 170.648 135.182 171.348H134.3V172.692H142V171.348H136.75C135.91 171.096 135.364 170.284 135.364 169.514C135.364 169.122 135.42 168.814 135.532 168.534L134.216 168.282C134.146 168.464 134.132 168.646 134.132 169.08ZM142.238 163.816C142.238 161.604 140.614 160.134 138.178 160.134C135.742 160.134 134.118 161.604 134.118 163.816C134.118 166.028 135.742 167.512 138.178 167.512C140.614 167.512 142.238 166.028 142.238 163.816ZM141.118 163.816C141.118 165.23 139.942 166.168 138.164 166.168C136.414 166.168 135.238 165.23 135.238 163.816C135.238 162.416 136.414 161.478 138.164 161.478C139.942 161.478 141.118 162.416 141.118 163.816ZM132.018 154.79H130.8C130.828 157.1 131.696 158.01 134.062 158.01H134.44V159.018H135.56V158.01H142V156.666H135.56V155H134.44V156.666H133.782C132.536 156.666 132.06 156.498 132.018 154.79ZM138.108 146.839C135.672 146.839 134.118 148.071 134.118 150.325C134.118 152.481 135.742 153.881 138.178 153.881C140.614 153.881 142.238 152.453 142.238 150.241C142.238 148.701 141.524 147.637 140.334 147.119L139.872 148.323C140.656 148.673 141.118 149.359 141.118 150.241C141.118 151.417 140.152 152.355 138.64 152.509V146.881C138.584 146.853 138.374 146.839 138.108 146.839ZM137.534 152.509C136.064 152.341 135.238 151.599 135.238 150.339C135.238 149.023 136.064 148.267 137.52 148.267L137.534 152.509ZM139.788 139.276C138.276 139.276 137.786 140.872 137.422 142.23C137.17 143.182 136.89 144.036 136.33 144.036C135.742 144.036 135.252 143.434 135.252 142.538C135.252 141.88 135.56 141.026 136.288 140.634L135.728 139.5C134.72 139.99 134.132 141.208 134.132 142.468C134.132 144.232 135.028 145.38 136.456 145.38C137.884 145.38 138.332 143.868 138.64 142.72C138.948 141.53 139.2 140.592 139.914 140.592C140.46 140.592 141.034 141.334 141.034 142.426C141.034 143.35 140.558 144.204 139.732 144.638L140.292 145.856C141.398 145.324 142.182 143.882 142.182 142.426C142.182 140.592 141.16 139.276 139.788 139.276ZM139.788 131.578C138.276 131.578 137.786 133.174 137.422 134.532C137.17 135.484 136.89 136.338 136.33 136.338C135.742 136.338 135.252 135.736 135.252 134.84C135.252 134.182 135.56 133.328 136.288 132.936L135.728 131.802C134.72 132.292 134.132 133.51 134.132 134.77C134.132 136.534 135.028 137.682 136.456 137.682C137.884 137.682 138.332 136.17 138.64 135.022C138.948 133.832 139.2 132.894 139.914 132.894C140.46 132.894 141.034 133.636 141.034 134.728C141.034 135.652 140.558 136.506 139.732 136.94L140.292 138.158C141.398 137.626 142.182 136.184 142.182 134.728C142.182 132.894 141.16 131.578 139.788 131.578ZM133.068 129.131C133.068 128.543 132.732 128.221 132.158 128.221C131.57 128.221 131.248 128.543 131.248 129.131C131.248 129.719 131.57 130.041 132.158 130.041C132.732 130.041 133.068 129.719 133.068 129.131ZM134.3 129.817H142V128.473H134.3V129.817ZM142.238 122.992C142.238 120.78 140.614 119.31 138.178 119.31C135.742 119.31 134.118 120.78 134.118 122.992C134.118 125.204 135.742 126.688 138.178 126.688C140.614 126.688 142.238 125.204 142.238 122.992ZM141.118 122.992C141.118 124.406 139.942 125.344 138.164 125.344C136.414 125.344 135.238 124.406 135.238 122.992C135.238 121.592 136.414 120.654 138.164 120.654C139.942 120.654 141.118 121.592 141.118 122.992ZM134.132 113.798C134.132 115.002 134.468 115.744 135.266 116.5H134.3V117.844H142V116.5H137.002C135.994 116.346 135.322 115.366 135.322 114.47C135.322 113.252 136.036 112.776 137.282 112.776H142V111.432H136.834C135.014 111.432 134.132 112.384 134.132 113.798ZM139.704 103.709H137.24C135.14 103.709 134.146 104.647 134.146 106.719C134.146 108.161 134.58 109.043 135.798 109.757L136.358 108.665C135.658 108.343 135.252 107.615 135.252 106.831C135.252 105.529 135.728 105.011 137.086 104.969C137.086 106.327 137.24 107.699 137.52 108.441C137.856 109.365 138.626 109.967 139.76 109.967C141.188 109.967 142.21 109.043 142.21 107.573C142.21 106.369 141.692 105.319 140.908 104.955L142 104.675V103.415C141.398 103.597 140.586 103.709 139.704 103.709ZM141.076 107.167C141.076 108.091 140.474 108.623 139.732 108.623C139.102 108.623 138.71 108.371 138.514 107.825C138.318 107.307 138.178 106.187 138.164 104.969L139.088 104.955C140.264 105.053 141.076 106.089 141.076 107.167ZM130.8 101.363H142V100.019H130.8V101.363Z" fill="black"/>
<path d="M131.5 414.884V418.02H142V416.606H138.08V414.884C138.08 412.238 137.03 410.74 134.776 410.74C132.536 410.74 131.5 412.238 131.5 414.884ZM136.89 415.094V416.606H132.69V415.094C132.69 413.106 133.306 412.154 134.762 412.154C136.26 412.154 136.89 413.162 136.89 415.094ZM138.108 402.786C135.672 402.786 134.118 404.018 134.118 406.272C134.118 408.428 135.742 409.828 138.178 409.828C140.614 409.828 142.238 408.4 142.238 406.188C142.238 404.648 141.524 403.584 140.334 403.066L139.872 404.27C140.656 404.62 141.118 405.306 141.118 406.188C141.118 407.364 140.152 408.302 138.64 408.456V402.828C138.584 402.8 138.374 402.786 138.108 402.786ZM137.534 408.456C136.064 408.288 135.238 407.546 135.238 406.286C135.238 404.97 136.064 404.214 137.52 404.214L137.534 408.456ZM134.132 398.121C134.132 399.017 134.44 399.689 135.182 400.389H134.3V401.733H142V400.389H136.75C135.91 400.137 135.364 399.325 135.364 398.555C135.364 398.163 135.42 397.855 135.532 397.575L134.216 397.323C134.146 397.505 134.132 397.687 134.132 398.121ZM139.788 389.973C138.276 389.973 137.786 391.569 137.422 392.927C137.17 393.879 136.89 394.733 136.33 394.733C135.742 394.733 135.252 394.131 135.252 393.235C135.252 392.577 135.56 391.723 136.288 391.331L135.728 390.197C134.72 390.687 134.132 391.905 134.132 393.165C134.132 394.929 135.028 396.077 136.456 396.077C137.884 396.077 138.332 394.565 138.64 393.417C138.948 392.227 139.2 391.289 139.914 391.289C140.46 391.289 141.034 392.031 141.034 393.123C141.034 394.047 140.558 394.901 139.732 395.335L140.292 396.553C141.398 396.021 142.182 394.579 142.182 393.123C142.182 391.289 141.16 389.973 139.788 389.973ZM142.238 385.16C142.238 382.948 140.614 381.478 138.178 381.478C135.742 381.478 134.118 382.948 134.118 385.16C134.118 387.372 135.742 388.856 138.178 388.856C140.614 388.856 142.238 387.372 142.238 385.16ZM141.118 385.16C141.118 386.574 139.942 387.512 138.164 387.512C136.414 387.512 135.238 386.574 135.238 385.16C135.238 383.76 136.414 382.822 138.164 382.822C139.942 382.822 141.118 383.76 141.118 385.16ZM134.132 375.966C134.132 377.17 134.468 377.912 135.266 378.668H134.3V380.012H142V378.668H137.002C135.994 378.514 135.322 377.534 135.322 376.638C135.322 375.42 136.036 374.944 137.282 374.944H142V373.6H136.834C135.014 373.6 134.132 374.552 134.132 375.966ZM139.704 365.877H137.24C135.14 365.877 134.146 366.815 134.146 368.887C134.146 370.329 134.58 371.211 135.798 371.925L136.358 370.833C135.658 370.511 135.252 369.783 135.252 368.999C135.252 367.697 135.728 367.179 137.086 367.137C137.086 368.495 137.24 369.867 137.52 370.609C137.856 371.533 138.626 372.135 139.76 372.135C141.188 372.135 142.21 371.211 142.21 369.741C142.21 368.537 141.692 367.487 140.908 367.123L142 366.843V365.583C141.398 365.765 140.586 365.877 139.704 365.877ZM141.076 369.335C141.076 370.259 140.474 370.791 139.732 370.791C139.102 370.791 138.71 370.539 138.514 369.993C138.318 369.475 138.178 368.355 138.164 367.137L139.088 367.123C140.264 367.221 141.076 368.257 141.076 369.335ZM130.8 363.531H142V362.187H130.8V363.531Z" fill="black"/>
<path d="M410.577 72.5H407.441V83H408.855V79.08H410.577C413.223 79.08 414.721 78.03 414.721 75.776C414.721 73.536 413.223 72.5 410.577 72.5ZM410.367 77.89H408.855V73.69H410.367C412.355 73.69 413.307 74.306 413.307 75.762C413.307 77.26 412.299 77.89 410.367 77.89ZM422.675 79.108C422.675 76.672 421.443 75.118 419.189 75.118C417.033 75.118 415.633 76.742 415.633 79.178C415.633 81.614 417.061 83.238 419.273 83.238C420.813 83.238 421.877 82.524 422.395 81.334L421.191 80.872C420.841 81.656 420.155 82.118 419.273 82.118C418.097 82.118 417.159 81.152 417.005 79.64H422.633C422.661 79.584 422.675 79.374 422.675 79.108ZM417.005 78.534C417.173 77.064 417.915 76.238 419.175 76.238C420.491 76.238 421.247 77.064 421.247 78.52L417.005 78.534ZM427.34 75.132C426.444 75.132 425.772 75.44 425.072 76.182V75.3H423.728V83H425.072V77.75C425.324 76.91 426.136 76.364 426.906 76.364C427.298 76.364 427.606 76.42 427.886 76.532L428.138 75.216C427.956 75.146 427.774 75.132 427.34 75.132ZM430.238 74.068C430.826 74.068 431.148 73.732 431.148 73.158C431.148 72.57 430.826 72.248 430.238 72.248C429.65 72.248 429.328 72.57 429.328 73.158C429.328 73.732 429.65 74.068 430.238 74.068ZM429.552 75.3V83H430.896V75.3H429.552ZM436.867 75.09C435.901 75.09 435.005 75.622 434.515 76.462V75.3H433.171V86.192H434.515V81.936C435.061 82.664 435.957 83.154 436.867 83.154C438.995 83.154 440.409 81.516 440.409 79.08C440.409 76.686 438.995 75.09 436.867 75.09ZM436.909 82.034C435.439 82.034 434.515 81.25 434.515 79.136C434.515 77.134 435.453 76.21 436.867 76.21C438.183 76.21 439.065 77.372 439.065 79.094C439.065 80.844 438.183 82.034 436.909 82.034ZM445.926 75.132C444.722 75.132 443.98 75.468 443.224 76.266V71.8H441.88V83H443.224V78.002C443.378 77.064 444.358 76.434 445.24 76.434C446.472 76.434 446.948 77.106 446.948 78.282V83H448.292V77.834C448.292 76.014 447.34 75.132 445.926 75.132ZM456.8 79.108C456.8 76.672 455.568 75.118 453.314 75.118C451.158 75.118 449.758 76.742 449.758 79.178C449.758 81.614 451.186 83.238 453.398 83.238C454.938 83.238 456.002 82.524 456.52 81.334L455.316 80.872C454.966 81.656 454.28 82.118 453.398 82.118C452.222 82.118 451.284 81.152 451.13 79.64H456.758C456.786 79.584 456.8 79.374 456.8 79.108ZM451.13 78.534C451.298 77.064 452.04 76.238 453.3 76.238C454.616 76.238 455.372 77.064 455.372 78.52L451.13 78.534ZM461.465 75.132C460.569 75.132 459.897 75.44 459.197 76.182V75.3H457.853V83H459.197V77.75C459.449 76.91 460.261 76.364 461.031 76.364C461.423 76.364 461.731 76.42 462.011 76.532L462.263 75.216C462.081 75.146 461.899 75.132 461.465 75.132ZM469.291 80.704V78.24C469.291 76.14 468.353 75.146 466.281 75.146C464.839 75.146 463.957 75.58 463.243 76.798L464.335 77.358C464.657 76.658 465.385 76.252 466.169 76.252C467.471 76.252 467.989 76.728 468.031 78.086C466.673 78.086 465.301 78.24 464.559 78.52C463.635 78.856 463.033 79.626 463.033 80.76C463.033 82.188 463.957 83.21 465.427 83.21C466.631 83.21 467.681 82.692 468.045 81.908L468.325 83H469.585C469.403 82.398 469.291 81.586 469.291 80.704ZM465.833 82.076C464.909 82.076 464.377 81.474 464.377 80.732C464.377 80.102 464.629 79.71 465.175 79.514C465.693 79.318 466.813 79.178 468.031 79.164L468.045 80.088C467.947 81.264 466.911 82.076 465.833 82.076ZM471.637 71.8V83H472.981V71.8H471.637Z" fill="black"/>
<defs>
<linearGradient id="paint0_linear" x1="163.226" y1="419.334" x2="163.226" y2="739.84" gradientUnits="userSpaceOnUse">
<stop stop-color="white"/>
<stop offset="1" stop-color="white" stop-opacity="0"/>
</linearGradient>
<linearGradient id="paint1_linear" x1="480.385" y1="88.058" x2="480.385" y2="405.159" gradientUnits="userSpaceOnUse">
<stop stop-color="white"/>
<stop offset="1" stop-color="white" stop-opacity="0"/>
</linearGradient>
</defs>
</svg>
